<svg width="898" height="17" viewBox="0 0 898 17" fill="none" xmlns="http://www.w3.org/2000/svg">
<mask id="path-1-inside-1" fill="white">
<path fill-rule="evenodd" clip-rule="evenodd" d="M4 0C1.79086 0 0 1.79086 0 4V17H898V4C898 1.79086 896.209 0 894 0H4ZM9.82076 12.3443C11.8127 12.3443 13.4276 10.7323 13.4276 8.74384C13.4276 6.75539 11.8127 5.14343 9.82076 5.14343C7.82878 5.14343 6.21396 6.75539 6.21396 8.74384C6.21396 10.7323 7.82878 12.3443 9.82076 12.3443ZM26.7019 8.74384C26.7019 10.7323 25.0871 12.3443 23.0951 12.3443C21.1031 12.3443 19.4883 10.7323 19.4883 8.74384C19.4883 6.75539 21.1031 5.14343 23.0951 5.14343C25.0871 5.14343 26.7019 6.75539 26.7019 8.74384ZM37.369 12.3443C39.361 12.3443 40.9758 10.7323 40.9758 8.74384C40.9758 6.75539 39.361 5.14343 37.369 5.14343C35.377 5.14343 33.7622 6.75539 33.7622 8.74384C33.7622 10.7323 35.377 12.3443 37.369 12.3443Z"/>
</mask>
<path d="M0 17H-1V18H0V17ZM898 17V18H899V17H898ZM1 4C1 2.34315 2.34315 1 4 1V-1C1.23858 -1 -1 1.23858 -1 4H1ZM1 17V4H-1V17H1ZM898 16H0V18H898V16ZM897 4V17H899V4H897ZM894 1C895.657 1 897 2.34314 897 4H899C899 1.23858 896.761 -1 894 -1V1ZM4 1H894V-1H4V1ZM12.4276 8.74384C12.4276 10.1783 11.2621 11.3443 9.82076 11.3443V13.3443C12.3633 13.3443 14.4276 11.2863 14.4276 8.74384H12.4276ZM9.82076 6.14343C11.2621 6.14343 12.4276 7.30935 12.4276 8.74384H14.4276C14.4276 6.20144 12.3633 4.14343 9.82076 4.14343V6.14343ZM7.21396 8.74384C7.21396 7.30935 8.37939 6.14343 9.82076 6.14343V4.14343C7.27816 4.14343 5.21396 6.20144 5.21396 8.74384H7.21396ZM9.82076 11.3443C8.37939 11.3443 7.21396 10.1783 7.21396 8.74384H5.21396C5.21396 11.2863 7.27816 13.3443 9.82076 13.3443V11.3443ZM23.0951 13.3443C25.6377 13.3443 27.7019 11.2863 27.7019 8.74384H25.7019C25.7019 10.1783 24.5364 11.3443 23.0951 11.3443V13.3443ZM18.4883 8.74384C18.4883 11.2863 20.5525 13.3443 23.0951 13.3443V11.3443C21.6537 11.3443 20.4883 10.1783 20.4883 8.74384H18.4883ZM23.0951 4.14343C20.5525 4.14343 18.4883 6.20144 18.4883 8.74384H20.4883C20.4883 7.30935 21.6537 6.14343 23.0951 6.14343V4.14343ZM27.7019 8.74384C27.7019 6.20144 25.6377 4.14343 23.0951 4.14343V6.14343C24.5364 6.14343 25.7019 7.30935 25.7019 8.74384H27.7019ZM39.9758 8.74384C39.9758 10.1783 38.8104 11.3443 37.369 11.3443V13.3443C39.9116 13.3443 41.9758 11.2862 41.9758 8.74384H39.9758ZM37.369 6.14343C38.8104 6.14343 39.9758 7.30935 39.9758 8.74384H41.9758C41.9758 6.20144 39.9116 4.14343 37.369 4.14343V6.14343ZM34.7622 8.74384C34.7622 7.30935 35.9276 6.14343 37.369 6.14343V4.14343C34.8264 4.14343 32.7622 6.20144 32.7622 8.74384H34.7622ZM37.369 11.3443C35.9276 11.3443 34.7622 10.1783 34.7622 8.74384H32.7622C32.7622 11.2863 34.8264 13.3443 37.369 13.3443V11.3443Z" fill="#F3F6F9" mask="url(#path-1-inside-1)"/>
</svg>
