<svg width="23" height="22" viewBox="0 0 23 22" fill="none" xmlns="http://www.w3.org/2000/svg">
<path d="M21.4618 0H1.89101C1.22085 0 0.676758 0.543009 0.676758 1.21425V20.785C0.676758 21.4563 1.22085 22 1.89101 22H12.4273V13.4803H9.56051V10.1596H12.4273V7.71079C12.4273 4.86969 14.1621 3.32181 16.6971 3.32181C17.9125 3.32181 18.9547 3.41273 19.2586 3.45222V6.42192L17.5002 6.42264C16.1219 6.42264 15.856 7.07795 15.856 8.03899V10.1585H19.1445L18.7145 13.4789H15.8556V21.9989H21.4614C22.1323 21.9989 22.6768 21.4545 22.6768 20.785V1.21353C22.6764 0.543009 22.1327 0 21.4618 0Z" fill="white"/>
</svg>
