<svg width="23" height="23" viewBox="0 0 23 23" fill="none" xmlns="http://www.w3.org/2000/svg">
<path d="M15.8018 0.323242H7.55176C3.75538 0.323242 0.676758 3.40187 0.676758 7.19824V15.4482C0.676758 19.2446 3.75538 22.3232 7.55176 22.3232H15.8018C19.5981 22.3232 22.6768 19.2446 22.6768 15.4482V7.19824C22.6768 3.40187 19.5981 0.323242 15.8018 0.323242ZM20.6143 15.4482C20.6143 18.102 18.4555 20.2607 15.8018 20.2607H7.55176C4.89801 20.2607 2.73926 18.102 2.73926 15.4482V7.19824C2.73926 4.54449 4.89801 2.38574 7.55176 2.38574H15.8018C18.4555 2.38574 20.6143 4.54449 20.6143 7.19824V15.4482Z" fill="white"/>
<path d="M11.6769 5.82323C8.6395 5.82323 6.17688 8.28585 6.17688 11.3232C6.17688 14.3606 8.6395 16.8232 11.6769 16.8232C14.7143 16.8232 17.1769 14.3606 17.1769 11.3232C17.1769 8.28585 14.7143 5.82323 11.6769 5.82323ZM11.6769 14.7607C9.78213 14.7607 8.23938 13.218 8.23938 11.3232C8.23938 9.4271 9.78213 7.88573 11.6769 7.88573C13.5716 7.88573 15.1144 9.4271 15.1144 11.3232C15.1144 13.218 13.5716 14.7607 11.6769 14.7607Z" fill="white"/>
<path d="M17.5893 6.14358C17.9941 6.14358 18.3222 5.81546 18.3222 5.4107C18.3222 5.00595 17.9941 4.67783 17.5893 4.67783C17.1846 4.67783 16.8564 5.00595 16.8564 5.4107C16.8564 5.81546 17.1846 6.14358 17.5893 6.14358Z" fill="white"/>
</svg>
