<svg width="343" height="87" viewBox="0 0 343 87" fill="none" xmlns="http://www.w3.org/2000/svg">
<path fill-rule="evenodd" clip-rule="evenodd" d="M33.4 19.6102L23.0976 13.9252C23.1512 14.0473 23.2156 14.1692 23.2915 14.2915C23.7156 14.9026 24.2476 15.5031 24.8999 16.0896C25.6056 16.6852 26.3491 17.2477 27.1311 17.7769C27.9689 18.3047 28.7253 18.775 29.4007 19.1882L29.4052 19.1909C31.1522 20.2662 32.9799 21.3988 34.8882 22.5886C36.8834 23.7934 38.7363 25.142 40.4442 26.6354C42.2156 28.1842 43.6901 29.954 44.8558 31.9439C46.109 34.0433 46.7166 36.4174 46.7166 39.0077C46.7166 41.3598 46.1742 43.5523 45.0757 45.5452C44.0504 47.478 42.6556 49.1208 40.9126 50.4669C39.2225 51.8035 37.2805 52.8207 35.1086 53.5331C32.9257 54.2489 30.642 54.6029 28.2659 54.6029C25.0039 54.6029 21.6933 54.1361 18.3384 53.2128C14.923 52.2729 11.5598 50.7077 8.25031 48.5419L5.55322 46.7768L21.5499 37.7491L33.4137 45.1896C33.5347 44.7944 33.5847 44.4453 33.5847 44.1352C33.5847 43.6994 33.4642 43.2262 33.1391 42.6884C32.7408 42.0294 32.2315 41.3829 31.5989 40.7517L31.5796 40.7325L31.5608 40.7127C30.9565 40.0742 30.2751 39.4798 29.5131 38.9309L29.4953 38.9182L29.4779 38.905C28.6832 38.304 27.9729 37.7817 27.3458 37.3369C25.7682 36.2663 24.0693 35.1192 22.249 33.8956L22.2409 33.8902L22.2329 33.8846C20.3802 32.611 18.6303 31.2361 16.984 29.7597L16.9655 29.7431L16.9474 29.726C15.2938 28.1629 13.8869 26.4625 12.737 24.623L12.7229 24.6004L12.7094 24.5774C11.5137 22.5429 10.9123 20.3112 10.9123 17.9216C10.9123 15.6576 11.3518 13.5402 12.2577 11.6022L12.266 11.5843L12.2747 11.5666C13.2123 9.66123 14.5057 8.03954 16.1401 6.71486C17.7933 5.36957 19.7006 4.34624 21.8392 3.63024L21.8499 3.62667C24.0423 2.90764 26.3884 2.55685 28.8754 2.55685C32.2535 2.55685 35.3497 3.1503 38.1321 4.37847C40.7927 5.51539 43.5068 7.08385 46.274 9.06552L48.7661 10.8501L33.4 19.6102ZM37.408 6.1687C34.8889 5.05486 32.0446 4.49794 28.8754 4.49794C26.5594 4.49794 24.4059 4.82441 22.415 5.47735C20.4646 6.13029 18.7581 7.05208 17.2954 8.24274C15.8733 9.39498 14.7559 10.7969 13.9433 12.4484C13.1713 14.1 12.7853 15.9244 12.7853 17.9216C12.7853 19.9572 13.2932 21.8392 14.309 23.5676C15.3654 25.2576 16.6656 26.8323 18.2096 28.2918C19.7942 29.7129 21.4804 31.038 23.2682 32.2671C25.0966 33.4961 26.8032 34.6484 28.3878 35.7238C29.0379 36.1847 29.7693 36.7224 30.5819 37.337C31.4352 37.9515 32.2072 38.6236 32.8979 39.3534C33.6293 40.0831 34.2387 40.8513 34.7263 41.6579C35.2139 42.4644 35.4577 43.2902 35.4577 44.1352C35.4577 44.7113 35.3561 45.3067 35.153 45.9212C35.1256 46.0181 35.0936 46.1178 35.0571 46.2202C34.9561 46.5031 34.8199 46.8068 34.6487 47.1312C34.5136 47.3871 34.3566 47.6559 34.1778 47.9376L21.5007 39.9871L9.25033 46.9006C9.87333 47.3083 10.4971 47.693 11.1217 48.0547C13.6744 49.533 16.2402 50.627 18.8191 51.3367C22.029 52.2201 25.1779 52.6618 28.2659 52.6618C30.46 52.6618 32.5525 52.3354 34.5435 51.6824C36.5344 51.0295 38.2816 50.1077 39.785 48.917C41.329 47.7264 42.5479 46.2861 43.4418 44.5961C44.3763 42.9061 44.8436 41.0433 44.8436 39.0077C44.8436 36.7416 44.3154 34.7252 43.259 32.9584C42.2025 31.1532 40.8617 29.5401 39.2364 28.119C37.6112 26.6979 35.8437 25.4112 33.934 24.259C32.0243 23.0683 30.1959 21.9353 28.4487 20.8598C27.758 20.4373 26.986 19.9572 26.1327 19.4195C25.2795 18.8434 24.4669 18.2289 23.6949 17.5759C22.9229 16.8846 22.2727 16.1548 21.7445 15.3867C21.257 14.6185 21.0132 13.7927 21.0132 12.9093C21.0132 12.8654 21.0138 12.8209 21.015 12.776C21.0312 12.1927 21.1525 11.5266 21.3789 10.7777L33.3855 17.4031L45.2093 10.6625C44.6174 10.2386 44.0294 9.8353 43.4455 9.4526C41.3836 8.10139 39.3712 7.00676 37.408 6.1687ZM98.2897 11.7571V34.6868C98.2897 37.1065 97.8021 39.3918 96.8269 41.5426C95.8924 43.6551 94.5719 45.4987 92.8654 47.0734C91.1995 48.6482 89.2288 49.8964 86.9535 50.8182C84.6781 51.74 82.1996 52.2009 79.5179 52.2009C76.8362 52.2009 74.3374 51.74 72.0214 50.8182C69.746 49.8964 67.755 48.6482 66.0485 47.0734C64.3826 45.4603 63.0621 43.5975 62.0869 41.485C61.1524 39.3342 60.6852 37.0489 60.6852 34.6292V11.7571L55.5656 5.36212H78.1161L72.9356 11.7571V34.4563C72.9356 36.1847 73.2403 37.7979 73.8498 39.2958C74.4593 40.7937 75.2922 42.0996 76.3486 43.2134C77.4457 44.3272 78.7459 45.2106 80.2493 45.8636C81.4511 46.3855 82.7567 46.6989 84.1663 46.8036C84.52 46.8298 84.8802 46.843 85.2469 46.843H86.0393V11.7571L80.9197 5.36212H103.47L98.2897 11.7571ZM84.1663 12.4575L79.5177 6.65082L74.8085 12.4639V34.4563C74.8085 35.9422 75.0693 37.2972 75.5756 38.5416C76.0945 39.817 76.7939 40.9105 77.6719 41.8396C78.587 42.7654 79.6806 43.512 80.9732 44.0733C81.9339 44.4906 82.9943 44.7565 84.1663 44.8568V12.4575ZM51.5779 3.42103L58.8122 12.4575V34.6292C58.8122 37.3164 59.3329 39.8741 60.3791 42.282L60.388 42.3025L60.3974 42.3227C61.4743 44.6556 62.9348 46.7148 64.7698 48.4918L64.7862 48.5077L64.803 48.5231C66.6866 50.2613 68.8716 51.6263 71.3395 52.6261L71.3499 52.6303C73.8969 53.6441 76.6253 54.142 79.5179 54.142C82.4101 54.142 85.1224 53.6442 87.6354 52.6261C90.1031 51.6264 92.2719 50.2596 94.1194 48.5153C96.0094 46.7691 97.4832 44.7138 98.526 42.3594C99.6178 39.948 100.163 37.3833 100.163 34.6868V12.4639L107.488 3.42103H51.5779ZM172.928 53.3931H142.371L149.606 44.3566V26.9693L137.47 45.1741L124.95 26.6194V44.3502L132.276 53.3931H107.997L115.231 44.3566V13.5933L110.06 8.70489L125.489 2.31396e-07L141.236 23.6059L149.073 11.8068L142.379 3.42103H172.928L165.602 12.4639V44.3502L172.928 53.3931ZM163.729 45.057V11.7571L168.91 5.36212H146.359L151.418 11.6995L141.239 27.0244L124.906 2.53912L113.265 9.10692L117.104 12.7365V45.057L111.985 51.452H128.258L123.077 45.057V20.4565L137.461 41.7731L151.479 20.7446V45.057L146.359 51.452H168.91L163.729 45.057ZM238.394 53.3931H207.837L215.072 44.3566V26.9693L202.936 45.1741L190.416 26.6194V44.3502L197.742 53.3931H173.463L180.697 44.3566V13.5933L175.526 8.70489L190.955 0L206.702 23.6059L214.539 11.8068L207.845 3.42103H238.394L231.068 12.4639V44.3502L238.394 53.3931ZM229.195 45.057V11.7571L234.376 5.36212H211.825L216.884 11.6995L206.706 27.0244L190.372 2.53912L178.731 9.10692L182.57 12.7365V45.057L177.451 51.452H193.724L188.543 45.057V20.4565L202.927 41.7731L216.945 20.7446V45.057L211.825 51.452H234.376L229.195 45.057ZM278.494 53.3931H238.929L246.163 44.3566V12.4575L238.929 3.42103H278.494V19.4741L262.16 12.2726V21.9146H274.288V37.1094L262.16 30.9448V44.5415L278.494 37.34V53.3931ZM260.287 47.4767V27.8309L272.415 33.9954V23.8557H260.287V9.33737L276.621 16.5389V5.36212H242.917L248.036 11.7571V45.057L242.917 51.452H276.621V40.2752L260.287 47.4767ZM318.898 55.5319L305.604 36.3404V44.3502L312.929 53.3931H282.373L289.607 44.3566V12.4575L282.373 3.42103H309.155C312.088 3.42103 314.795 3.84841 317.254 4.73403C319.659 5.56212 321.767 6.69748 323.546 8.16373C325.315 9.62114 326.711 11.324 327.697 13.2769C328.679 15.2219 329.19 17.2571 329.19 19.3619C329.19 22.2703 328.203 24.9372 326.341 27.3163C324.889 29.2135 322.876 30.7474 320.392 31.9674L326.201 40.4075L335.043 46.4222L318.898 55.5319ZM324.88 41.8307L317.505 31.1148C318.129 30.8773 318.723 30.6257 319.286 30.3598C321.727 29.207 323.592 27.788 324.88 26.1026C326.505 24.0285 327.318 21.7816 327.318 19.3619C327.318 17.5951 326.891 15.8668 326.038 14.1768C325.184 12.4868 323.965 10.9889 322.381 9.68305C320.796 8.37717 318.886 7.34014 316.652 6.57198C314.417 5.76541 311.918 5.36212 309.155 5.36212H286.361L291.48 11.7571V45.057L286.361 51.452H308.911L303.731 45.057V30.3083L319.455 53.0075L331.401 46.2669L324.88 41.8307ZM308.302 12.8517C309.724 13.6199 310.963 14.5801 312.02 15.7323C313.076 16.8846 313.909 18.1713 314.519 19.5924C315.128 20.9751 315.433 22.4154 315.433 23.9133C315.433 24.7967 315.311 25.6801 315.067 26.5635C314.823 27.4084 314.437 28.2342 313.909 29.0408L303.731 25.1231V11.2962C304.371 11.3869 304.995 11.5224 305.604 11.7025C306.541 11.9797 307.44 12.3628 308.302 12.8517ZM305.604 13.7351V23.7734L313.053 26.6406C313.138 26.4318 313.21 26.2241 313.27 26.0177C313.465 25.305 313.56 24.6051 313.56 23.9133C313.56 22.6979 313.315 21.5323 312.815 20.3989L312.811 20.3899L312.807 20.3808C312.286 19.1666 311.574 18.0646 310.662 17.0694C309.754 16.0795 308.683 15.2467 307.436 14.573L307.419 14.5639L307.403 14.5545C306.823 14.2256 306.224 13.9525 305.604 13.7351Z" fill="#F3F6F9"/>
<path d="M20.6469 62.0979H12.9465V82.8298H20.6469V62.0979ZM42.6169 62.0979V74.3297L33.6726 62.0979H23.6028V82.8298H31.3032V70.5979L40.2476 82.8298H50.3173V62.0979H42.6169ZM78.4649 62.0979H52.9942V68.6136H61.8793V82.8298H69.5798V68.6136H78.4649V62.0979ZM103.044 68.0213V62.0979H81.1269V82.8298H103.044V76.9064H88.8273V74.9813H103.044V69.9464H88.8273V68.0213H103.044ZM129.922 70.0352C129.922 65.415 126.694 62.0979 121.985 62.0979H105.695V82.8298H113.396V77.9726H117.927L120.8 82.8298H129.922L126.249 76.8768C128.53 75.544 129.922 73.0562 129.922 70.0352ZM113.396 68.6136H120.504C121.274 68.6136 122.221 68.6136 122.221 70.0352C122.221 71.4568 121.274 71.4568 120.504 71.4568H113.396V68.6136ZM151.591 62.0979V74.3297L142.647 62.0979H132.577V82.8298H140.278V70.5979L149.222 82.8298H159.292V62.0979H151.591ZM161.969 75.5144C161.969 81.6747 166.707 83.1259 175.207 83.1259C183.708 83.1259 188.446 81.6747 188.446 75.9586C188.446 70.5387 183.382 69.976 175.207 69.6502C170.706 69.4725 169.965 69.5021 169.965 68.7025C169.965 67.9028 170.706 67.7251 174.319 67.7251C178.08 67.7251 179.857 67.962 179.857 69.0579H187.558C187.558 63.7564 182.997 61.8017 174.911 61.8017C166.737 61.8017 162.265 63.7564 162.265 68.3174C162.265 73.145 165.848 74.6851 175.207 74.9813C180.065 75.1293 180.746 75.2478 180.746 76.1363C180.746 76.9064 180.065 77.2025 175.504 77.2025C170.617 77.2025 169.669 76.5213 169.669 75.5144H161.969ZM210.957 62.0979V69.2059H198.814V62.0979H191.114V82.8298H198.814V75.7217H210.957V82.8298H218.657V62.0979H210.957ZM229.312 62.0979H221.611V82.8298H229.312V62.0979ZM248.557 62.0979H232.267V82.8298H239.968V77.9726H248.557C253.266 77.9726 256.494 74.6555 256.494 70.0352C256.494 65.415 253.266 62.0979 248.557 62.0979ZM247.076 71.4568H239.968V68.6136H247.076C247.846 68.6136 248.794 68.6136 248.794 70.0352C248.794 71.4568 247.846 71.4568 247.076 71.4568ZM272.489 70.983H279.597L280.782 61.5055H274.562L272.489 70.983ZM307.268 68.3174C307.268 63.1641 303.092 61.8017 295.955 61.8017C288.906 61.8017 284.049 63.1641 284.049 70.2425H291.749C291.749 68.3174 293.526 68.3174 296.251 68.3174C298.828 68.3174 299.568 68.4655 299.568 69.354C299.568 72.2565 283.752 71.5161 283.752 79.2757V82.8298H306.972V76.314H295.629C297.11 74.0039 307.268 75.0405 307.268 68.3174ZM323.571 76.314V62.0979H315.871C315.871 65.0596 312.998 65.0596 309.947 65.0596V71.5753C312.109 71.5753 313.709 71.5753 315.96 69.591L315.9 76.314H309.947V82.8298H329.495V76.314H323.571Z" fill="#F3F6F9"/>
</svg>
