<svg width="341" height="84" viewBox="0 0 341 84" fill="none" xmlns="http://www.w3.org/2000/svg">
<path d="M10.7821 61.999H2.96533V83.6901H10.7821V61.999Z" fill="#F3F6F9"/>
<path d="M33.6852 61.999V74.7968L24.6058 61.999H14.3839V83.6901H22.2006V70.8924L31.28 83.6901H41.5019V61.999H33.6852Z" fill="#F3F6F9"/>
<path d="M70.6758 61.999H44.8205V68.8162H53.8398V83.6901H61.6565V68.8162H70.6758V61.999Z" fill="#F3F6F9"/>
<path d="M96.227 68.1965V61.999H73.9794V83.6901H96.227V77.4927H81.7961V75.4785H96.227V70.2107H81.7961V68.1965H96.227Z" fill="#F3F6F9"/>
<path d="M124.113 70.3036C124.113 65.4696 120.836 61.999 116.055 61.999H99.5199V83.6901H107.337V78.6082H111.936L114.853 83.6901H124.113L120.385 77.4617C122.7 76.0673 124.113 73.4643 124.113 70.3036ZM107.337 68.8162H114.552C115.334 68.8162 116.296 68.8162 116.296 70.3036C116.296 71.791 115.334 71.791 114.552 71.791H107.337V68.8162Z" fill="#F3F6F9"/>
<path d="M146.711 61.999V74.7968L137.631 61.999H127.409V83.6901H135.226V70.8924L144.305 83.6901H154.527V61.999H146.711Z" fill="#F3F6F9"/>
<path d="M157.846 76.0363C157.846 82.4816 162.656 84 171.285 84C179.913 84 184.723 82.4816 184.723 76.5011C184.723 70.8304 179.582 70.2417 171.285 69.9008C166.715 69.7149 165.963 69.7459 165.963 68.9092C165.963 68.0725 166.715 67.8866 170.383 67.8866C174.201 67.8866 176.005 68.1345 176.005 69.2811H183.821C183.821 63.7343 179.192 61.6892 170.984 61.6892C162.686 61.6892 158.147 63.7343 158.147 68.5064C158.147 73.5573 161.784 75.1686 171.285 75.4785C176.215 75.6334 176.907 75.7574 176.907 76.687C176.907 77.4927 176.215 77.8025 171.585 77.8025C166.625 77.8025 165.663 77.0898 165.663 76.0363H157.846Z" fill="#F3F6F9"/>
<path d="M208.175 61.999V69.436H195.849V61.999H188.032V83.6901H195.849V76.2532H208.175V83.6901H215.992V61.999H208.175Z" fill="#F3F6F9"/>
<path d="M227.408 61.999H219.592V83.6901H227.408V61.999Z" fill="#F3F6F9"/>
<path d="M247.546 61.999H231.01V83.6901H238.827V78.6082H247.546C252.326 78.6082 255.603 75.1376 255.603 70.3036C255.603 65.4696 252.326 61.999 247.546 61.999ZM246.042 71.791H238.827V68.8162H246.042C246.824 68.8162 247.786 68.8162 247.786 70.3036C247.786 71.791 246.824 71.791 246.042 71.791Z" fill="#F3F6F9"/>
<path d="M273.042 71.2952H280.257L281.46 61.3793H275.146L273.042 71.2952Z" fill="#F3F6F9"/>
<path d="M308.948 68.5064C308.948 63.1146 304.709 61.6892 297.463 61.6892C290.308 61.6892 285.377 63.1146 285.377 70.5205H293.194C293.194 68.5064 294.998 68.5064 297.764 68.5064C300.379 68.5064 301.131 68.6613 301.131 69.5909C301.131 72.6277 285.077 71.853 285.077 79.9717V83.6901H308.647V76.8729H297.132C298.636 74.4559 308.948 75.5405 308.948 68.5064Z" fill="#F3F6F9"/>
<path d="M324.294 84C332.622 84 336.621 80.3435 336.621 72.8136C336.621 65.3147 332.622 61.6892 324.294 61.6892C315.936 61.6892 311.968 65.2837 311.968 72.8136C311.968 80.3745 315.936 84 324.294 84ZM324.294 77.1828C320.596 77.1828 319.784 75.1376 319.784 72.8136C319.784 70.5205 320.566 68.5064 324.294 68.5064C328.022 68.5064 328.804 70.5515 328.804 72.8136C328.804 75.1067 327.992 77.1828 324.294 77.1828Z" fill="#F3F6F9"/>
<mask id="path-2-outside-1" maskUnits="userSpaceOnUse" x="-0.034668" y="0" width="341" height="55" fill="black">
<rect fill="white" x="-0.034668" width="341" height="55"/>
<path d="M28.0683 16.9901L15.5802 10.3085C15.3267 11.1219 15.1999 11.8384 15.1999 12.4582C15.1999 13.3491 15.4534 14.1819 15.9606 14.9565C16.51 15.7312 17.1861 16.4672 17.9891 17.1644C18.792 17.8229 19.6373 18.4426 20.5247 19.0236C21.4122 19.5659 22.2152 20.0501 22.9336 20.4761C24.7508 21.5607 26.6526 22.7034 28.6388 23.9041C30.6251 25.0661 32.4635 26.3637 34.1539 27.7969C35.8443 29.23 37.2389 30.8569 38.3377 32.6774C39.4365 34.4591 39.9859 36.4927 39.9859 38.778C39.9859 40.8309 39.4999 42.7095 38.5279 44.4138C37.5982 46.1181 36.3303 47.5706 34.7244 48.7714C33.1608 49.9721 31.3435 50.9018 29.2728 51.5602C27.202 52.2187 25.0255 52.548 22.7434 52.548C19.5316 52.548 16.2564 52.1025 12.9178 51.2116C9.57917 50.3207 6.26168 48.8295 2.96533 46.7378L15.707 39.7657L28.8924 47.7837C29.3995 47.009 29.7376 46.3311 29.9067 45.7501C30.118 45.1304 30.2236 44.53 30.2236 43.949C30.2236 43.0968 29.9701 42.2641 29.4629 41.4506C28.9558 40.6372 28.3219 39.8625 27.5612 39.1266C26.8428 38.3906 26.0398 37.7128 25.1523 37.0931C24.3071 36.4733 23.5464 35.931 22.8702 35.4662C21.222 34.3817 19.4471 33.2197 17.5453 31.9802C15.6859 30.7407 13.932 29.4043 12.2839 27.9712C10.6779 26.4993 9.3256 24.9112 8.22682 23.2069C7.17029 21.4639 6.64203 19.5659 6.64203 17.513C6.64203 15.4988 7.04351 13.659 7.84647 11.9934C8.69169 10.3278 9.85386 8.91403 11.333 7.75201C12.8544 6.55125 14.6293 5.62164 16.6579 4.96316C18.7287 4.30468 20.9685 3.97544 23.3774 3.97544C26.6737 3.97544 29.632 4.53708 32.2521 5.66037C34.8723 6.74492 37.577 8.25555 40.3662 10.1923L28.0683 16.9901ZM95.5752 11.2962V34.4204C95.5752 36.8607 95.0681 39.1653 94.0538 41.3344C93.0818 43.4648 91.7083 45.324 89.9333 46.9121C88.2007 48.5002 86.151 49.7591 83.7844 50.6887C81.4178 51.6183 78.8399 52.0831 76.0506 52.0831C73.2614 52.0831 70.6624 51.6183 68.2535 50.6887C65.8869 49.7591 63.8161 48.5002 62.0411 46.9121C60.3084 45.2853 58.935 43.4067 57.9207 41.2763C56.9487 39.1072 56.4627 36.8026 56.4627 34.3623V11.2962L51.1378 4.84695H74.5926L69.2044 11.2962V34.188C69.2044 35.931 69.5213 37.5579 70.1552 39.0685C70.7892 40.5791 71.6555 41.8961 72.7543 43.0194C73.8953 44.1427 75.2477 45.0335 76.8113 45.692C78.375 46.3505 80.1077 46.6797 82.0094 46.6797H82.8335V11.2962L77.5086 4.84695H100.963L95.5752 11.2962ZM169.027 51.3278H145.572L150.897 44.8786V20.3599L136.317 41.5668L121.357 20.0694V44.8786L126.745 51.3278H109.819L115.144 44.8786V12.2839L111.151 8.62353L123.258 2L140.247 26.693L150.834 11.2381L145.572 4.84695H169.027L163.639 11.2962V44.8786L169.027 51.3278ZM237.118 51.3278H213.663L218.988 44.8786V20.3599L204.408 41.5668L189.448 20.0694V44.8786L194.836 51.3278H177.911L183.236 44.8786V12.2839L179.242 8.62353L191.35 2L208.339 26.693L218.925 11.2381L213.663 4.84695H237.118L231.73 11.2962V44.8786L237.118 51.3278ZM281.057 51.3278H246.002L251.327 44.8786V11.2962L246.002 4.84695H281.057V16.1186L264.068 8.85593V23.4974H276.683V33.7232L264.068 27.5064V47.3189L281.057 40.0562V51.3278ZM325.61 52.8966L309.255 30.0047V44.8786L314.643 51.3278H291.188L296.513 44.8786V11.2962L291.188 4.84695H314.896C317.77 4.84695 320.369 5.25366 322.694 6.06708C325.018 6.84176 327.004 7.88758 328.652 9.20454C330.301 10.5215 331.568 12.0321 332.456 13.7364C333.343 15.4407 333.787 17.1838 333.787 18.9655C333.787 21.4058 332.942 23.6717 331.251 25.7633C329.603 27.855 327.046 29.5399 323.581 30.8181L331.251 41.6249L338.034 46.0987L325.61 52.8966ZM321.426 23.5555C321.426 22.0449 321.109 20.5923 320.475 19.1979C319.841 17.7648 318.975 16.4672 317.876 15.3052C316.777 14.1431 315.488 13.1748 314.009 12.4001C312.53 11.5867 310.945 11.0638 309.255 10.8314V24.7756L319.841 28.7265C320.39 27.9131 320.792 27.0803 321.045 26.2282C321.299 25.3373 321.426 24.4464 321.426 23.5555Z"/>
</mask>
<path d="M28.0683 16.9901L15.5802 10.3085C15.3267 11.1219 15.1999 11.8384 15.1999 12.4582C15.1999 13.3491 15.4534 14.1819 15.9606 14.9565C16.51 15.7312 17.1861 16.4672 17.9891 17.1644C18.792 17.8229 19.6373 18.4426 20.5247 19.0236C21.4122 19.5659 22.2152 20.0501 22.9336 20.4761C24.7508 21.5607 26.6526 22.7034 28.6388 23.9041C30.6251 25.0661 32.4635 26.3637 34.1539 27.7969C35.8443 29.23 37.2389 30.8569 38.3377 32.6774C39.4365 34.4591 39.9859 36.4927 39.9859 38.778C39.9859 40.8309 39.4999 42.7095 38.5279 44.4138C37.5982 46.1181 36.3303 47.5706 34.7244 48.7714C33.1608 49.9721 31.3435 50.9018 29.2728 51.5602C27.202 52.2187 25.0255 52.548 22.7434 52.548C19.5316 52.548 16.2564 52.1025 12.9178 51.2116C9.57917 50.3207 6.26168 48.8295 2.96533 46.7378L15.707 39.7657L28.8924 47.7837C29.3995 47.009 29.7376 46.3311 29.9067 45.7501C30.118 45.1304 30.2236 44.53 30.2236 43.949C30.2236 43.0968 29.9701 42.2641 29.4629 41.4506C28.9558 40.6372 28.3219 39.8625 27.5612 39.1266C26.8428 38.3906 26.0398 37.7128 25.1523 37.0931C24.3071 36.4733 23.5464 35.931 22.8702 35.4662C21.222 34.3817 19.4471 33.2197 17.5453 31.9802C15.6859 30.7407 13.932 29.4043 12.2839 27.9712C10.6779 26.4993 9.3256 24.9112 8.22682 23.2069C7.17029 21.4639 6.64203 19.5659 6.64203 17.513C6.64203 15.4988 7.04351 13.659 7.84647 11.9934C8.69169 10.3278 9.85386 8.91403 11.333 7.75201C12.8544 6.55125 14.6293 5.62164 16.6579 4.96316C18.7287 4.30468 20.9685 3.97544 23.3774 3.97544C26.6737 3.97544 29.632 4.53708 32.2521 5.66037C34.8723 6.74492 37.577 8.25555 40.3662 10.1923L28.0683 16.9901ZM95.5752 11.2962V34.4204C95.5752 36.8607 95.0681 39.1653 94.0538 41.3344C93.0818 43.4648 91.7083 45.324 89.9333 46.9121C88.2007 48.5002 86.151 49.7591 83.7844 50.6887C81.4178 51.6183 78.8399 52.0831 76.0506 52.0831C73.2614 52.0831 70.6624 51.6183 68.2535 50.6887C65.8869 49.7591 63.8161 48.5002 62.0411 46.9121C60.3084 45.2853 58.935 43.4067 57.9207 41.2763C56.9487 39.1072 56.4627 36.8026 56.4627 34.3623V11.2962L51.1378 4.84695H74.5926L69.2044 11.2962V34.188C69.2044 35.931 69.5213 37.5579 70.1552 39.0685C70.7892 40.5791 71.6555 41.8961 72.7543 43.0194C73.8953 44.1427 75.2477 45.0335 76.8113 45.692C78.375 46.3505 80.1077 46.6797 82.0094 46.6797H82.8335V11.2962L77.5086 4.84695H100.963L95.5752 11.2962ZM169.027 51.3278H145.572L150.897 44.8786V20.3599L136.317 41.5668L121.357 20.0694V44.8786L126.745 51.3278H109.819L115.144 44.8786V12.2839L111.151 8.62353L123.258 2L140.247 26.693L150.834 11.2381L145.572 4.84695H169.027L163.639 11.2962V44.8786L169.027 51.3278ZM237.118 51.3278H213.663L218.988 44.8786V20.3599L204.408 41.5668L189.448 20.0694V44.8786L194.836 51.3278H177.911L183.236 44.8786V12.2839L179.242 8.62353L191.35 2L208.339 26.693L218.925 11.2381L213.663 4.84695H237.118L231.73 11.2962V44.8786L237.118 51.3278ZM281.057 51.3278H246.002L251.327 44.8786V11.2962L246.002 4.84695H281.057V16.1186L264.068 8.85593V23.4974H276.683V33.7232L264.068 27.5064V47.3189L281.057 40.0562V51.3278ZM325.61 52.8966L309.255 30.0047V44.8786L314.643 51.3278H291.188L296.513 44.8786V11.2962L291.188 4.84695H314.896C317.77 4.84695 320.369 5.25366 322.694 6.06708C325.018 6.84176 327.004 7.88758 328.652 9.20454C330.301 10.5215 331.568 12.0321 332.456 13.7364C333.343 15.4407 333.787 17.1838 333.787 18.9655C333.787 21.4058 332.942 23.6717 331.251 25.7633C329.603 27.855 327.046 29.5399 323.581 30.8181L331.251 41.6249L338.034 46.0987L325.61 52.8966ZM321.426 23.5555C321.426 22.0449 321.109 20.5923 320.475 19.1979C319.841 17.7648 318.975 16.4672 317.876 15.3052C316.777 14.1431 315.488 13.1748 314.009 12.4001C312.53 11.5867 310.945 11.0638 309.255 10.8314V24.7756L319.841 28.7265C320.39 27.9131 320.792 27.0803 321.045 26.2282C321.299 25.3373 321.426 24.4464 321.426 23.5555Z" stroke="#F3F6F9" stroke-width="3" mask="url(#path-2-outside-1)"/>
</svg>
