<svg width="158" height="21" viewBox="0 0 158 21" fill="none" xmlns="http://www.w3.org/2000/svg">
<path d="M0.0266755 2.91715C0.0266755 2.49084 0.0266747 2.19775 0.0532659 1.98459C0.0799412 1.6382 0.266417 1.45169 0.586184 1.45169C1.30558 1.42505 2.15818 1.42505 3.09081 1.45169C3.41049 1.45169 3.65031 1.63821 3.75693 2.01124C3.8102 2.1711 3.91673 2.49084 4.07662 2.99709C4.20982 3.42341 4.31644 3.74314 4.36971 3.98294C4.58286 4.6757 4.87595 5.60827 5.22239 6.78063C5.62202 8.16616 5.91511 9.09876 6.04832 9.57833C6.10167 9.73821 6.12826 9.87142 6.18153 9.97803C6.26147 10.1378 6.36809 10.1912 6.50129 10.1912C6.66118 10.1645 6.74112 10.0846 6.79439 9.92468C6.84765 9.68494 6.901 9.47171 6.901 9.31191C6.901 9.17862 6.901 8.91221 6.901 8.48589C6.901 4.56912 6.901 2.6507 6.901 2.75729C6.901 2.11781 6.95427 1.71814 7.08748 1.61156C7.22069 1.47834 7.59372 1.42505 8.25985 1.42505C8.71282 1.42505 9.13912 1.4517 9.51216 1.47834C9.77858 1.50498 9.93846 1.66485 9.99173 1.95794C10.0184 2.19775 10.0184 2.4642 10.0184 2.78393C10.0184 9.3385 10.0184 14.5876 10.0184 18.5043C10.0184 19.1971 9.93846 19.6234 9.80525 19.7566C9.67204 19.8898 9.24574 19.9698 8.52626 19.9698C8.20658 19.9698 7.78028 19.9698 7.27404 19.9698C6.84765 19.9698 6.55456 19.7566 6.42135 19.3303C6.39476 19.2504 6.34141 19.1172 6.28814 18.9306C6.23488 18.7441 6.18153 18.6109 6.15494 18.531C6.075 18.2911 5.75523 17.2787 5.16904 15.5201C4.76942 14.2945 4.44965 13.2819 4.18323 12.5092C4.10329 12.2694 3.99667 11.9763 3.83687 11.63C3.75693 11.4701 3.65031 11.4168 3.51711 11.4435C3.3839 11.4701 3.30396 11.55 3.22401 11.7099C3.14407 11.9231 3.09081 12.2961 3.09081 12.8556C3.09081 13.4418 3.09081 14.401 3.09081 15.7066C3.09081 16.9589 3.09081 17.8914 3.09081 18.5576C3.09081 19.277 3.03745 19.6767 2.90425 19.8099C2.77104 19.9431 2.34474 19.9964 1.62534 19.9964C1.17237 19.9964 0.852601 19.9964 0.692801 19.9698C0.293092 19.9165 0.0532667 19.7033 0.0266755 19.3036C1.12853e-07 19.1172 0 18.7974 0 18.3711C0 17.2253 0 14.6674 0 10.6708C0.0266753 6.64741 0.0266755 4.06287 0.0266755 2.91715Z" fill="#F3F6F9"/>
<path d="M11.2441 10.6713C11.2441 5.90191 11.2441 3.26409 11.2441 2.73119C11.2441 2.06507 11.2975 1.6654 11.4307 1.55883C11.5639 1.4256 11.9369 1.37231 12.6031 1.37231C14.708 1.37231 16.6264 1.37231 18.385 1.37231C18.9977 1.37231 19.3442 1.4256 19.4774 1.55883C19.6106 1.69205 19.6639 2.03843 19.6639 2.59797C19.6639 3.05093 19.6639 3.42396 19.6373 3.74369C19.6106 4.06343 19.424 4.24994 19.0777 4.27658C18.9178 4.30323 18.6514 4.30323 18.2517 4.30323C16.4133 4.30323 15.534 4.30323 15.6405 4.30323C15.1875 4.32988 14.8945 4.40981 14.7347 4.56968C14.5748 4.72954 14.4682 5.02264 14.4682 5.44895C14.4416 6.35487 14.4416 7.20751 14.4682 8.06013C14.4682 8.43316 14.5481 8.67296 14.708 8.83283C14.8679 8.9927 15.1343 9.07264 15.5073 9.09931C15.7205 9.09931 16.0402 9.09931 16.4399 9.09931C16.8662 9.09931 17.1859 9.09931 17.3991 9.09931C17.7188 9.1259 17.932 9.17917 18.0385 9.28579C18.1451 9.3924 18.1984 9.60555 18.2251 9.92523C18.2517 10.4848 18.2251 11.0443 18.1984 11.6038C18.1718 11.9769 17.9853 12.1634 17.5856 12.19C17.1859 12.2167 16.5731 12.2167 15.8004 12.2167C15.2942 12.2167 14.9744 12.27 14.8145 12.3766C14.6014 12.5365 14.4948 12.9095 14.4416 13.469C14.4149 14.1085 14.4149 14.8279 14.4416 15.6539C14.4682 16.0802 14.5481 16.3733 14.708 16.5331C14.8679 16.693 15.161 16.773 15.6139 16.7996C15.534 16.7996 16.4133 16.7996 18.2251 16.7996C18.6247 16.7996 18.9178 16.8262 19.0777 16.8262C19.424 16.8529 19.6106 17.0394 19.6373 17.3325C19.7171 18.0253 19.7171 18.6647 19.6373 19.3042C19.6106 19.624 19.424 19.8104 19.0777 19.8371C18.8645 19.8637 18.6247 19.8904 18.3583 19.8904C17.5057 19.8904 15.5606 19.8904 12.5764 19.8904C12.3899 19.8904 12.2566 19.8904 12.1501 19.8904C11.8303 19.8637 11.6172 19.7838 11.5106 19.6772C11.3773 19.5706 11.3241 19.3575 11.2975 19.0644C11.2975 18.9312 11.2975 18.6115 11.2975 18.1318V10.6713H11.2441Z" fill="#F3F6F9"/>
<path d="M22.6211 19.6239C22.1681 19.3308 21.8217 19.0377 21.6086 18.7179C20.9957 17.7587 20.596 16.8528 20.4628 15.9735C20.4362 15.787 20.4362 15.5739 20.4628 15.3607C20.4895 15.0676 20.6227 14.9077 20.9158 14.8811C21.7951 14.7478 22.3546 14.6679 22.6743 14.6679C22.9408 14.6413 23.1273 14.6946 23.2605 14.7745C23.3671 14.8811 23.4737 15.0676 23.5536 15.334C23.5803 15.3873 23.6069 15.5206 23.6336 15.6804C23.6868 15.8403 23.7135 15.9469 23.7402 16.0268C23.7668 16.16 23.82 16.2933 23.9 16.3999C24.3264 17.1459 24.8592 17.4124 25.5253 17.2791C25.8451 17.1992 26.1115 17.0126 26.3247 16.7196C26.5645 16.4265 26.671 16.0801 26.671 15.7337C26.671 14.961 26.4313 14.3215 25.925 13.762C25.8184 13.6288 25.3654 13.2024 24.6195 12.4298C23.2073 11.0176 22.4612 10.2982 22.4079 10.2183C21.1289 8.83275 20.5428 7.26071 20.676 5.5288C20.7559 4.51631 21.1023 3.63703 21.6885 2.91762C22.248 2.22486 22.9674 1.7719 23.7934 1.58539C25.7385 1.10578 27.3106 1.47881 28.5095 2.70447C29.1756 3.39723 29.5753 4.2765 29.7086 5.39558C29.7352 5.68867 29.6286 5.87518 29.3622 5.95512C28.6428 6.19492 27.95 6.3015 27.3371 6.32814C27.0175 6.32814 26.8043 6.19493 26.6977 5.90183C26.671 5.84854 26.6178 5.74196 26.5645 5.55545C26.5112 5.39558 26.4579 5.289 26.4313 5.20906C26.1382 4.51631 25.6852 4.22321 25.0724 4.32979C24.4596 4.43637 24.1131 4.83604 24.0066 5.58209C23.8734 6.59459 24.1931 7.52715 24.9658 8.43308C25.3388 8.85939 25.7385 9.23245 26.1648 9.55213C26.8309 10.0584 27.5237 10.7245 28.1898 11.4706C29.522 12.9627 30.0549 14.6946 29.7618 16.6396C29.6553 17.4923 29.3088 18.2383 28.6961 18.9044C28.0832 19.5972 27.4171 19.9968 26.6444 20.1301C26.5912 20.1301 26.1115 20.1567 25.2056 20.2101C24.2197 20.2633 23.3671 20.0768 22.6211 19.6239Z" fill="#F3F6F9"/>
<path d="M33.5458 6.2483C33.5458 5.79533 33.5458 5.52889 33.5458 5.39566C33.5192 5.07593 33.4392 4.86277 33.306 4.72954C33.1728 4.59632 32.9597 4.51638 32.6399 4.48974C32.48 4.48974 32.2669 4.4631 32.0005 4.4631C31.7074 4.4631 31.4942 4.4631 31.3876 4.4631C31.1212 4.43645 30.9346 4.38317 30.8281 4.30323C30.7215 4.19665 30.6682 4.03678 30.6415 3.79698C30.6149 3.2108 30.6149 2.62461 30.6415 2.01179C30.6682 1.79863 30.7215 1.63876 30.8014 1.53218C30.908 1.45225 31.0678 1.39896 31.3077 1.37231C31.4409 1.37231 31.6274 1.37231 31.9205 1.37231C35.4376 1.37231 37.5958 1.37231 38.3419 1.37231C38.9547 1.37231 39.3277 1.4256 39.461 1.55883C39.5942 1.69205 39.6474 2.03843 39.6474 2.67791C39.6474 3.2108 39.6474 3.61047 39.6208 3.82362C39.5942 4.06343 39.5409 4.2233 39.461 4.30323C39.3543 4.40981 39.1945 4.4631 38.9813 4.4631C38.8481 4.48974 38.635 4.48974 38.3951 4.48974C38.1287 4.48974 37.9422 4.48974 37.8089 4.48974C37.4093 4.51638 37.1428 4.59632 36.9829 4.75619C36.8231 4.91606 36.7432 5.1825 36.7165 5.58218C36.7165 5.71539 36.7165 6.00849 36.7165 6.51474V12.4299C36.7165 14.8545 36.7165 16.8262 36.7165 18.345C36.7165 18.8246 36.7165 19.171 36.6899 19.3841C36.6633 19.7305 36.4767 19.917 36.157 19.917C35.4642 19.9436 34.7981 19.9436 34.1586 19.917C33.8123 19.8904 33.6257 19.7039 33.5724 19.3042C33.5458 19.1443 33.5458 18.8779 33.5458 18.4516C33.5458 17.4124 33.5458 15.3608 33.5458 12.2966V6.2483Z" fill="#F3F6F9"/>
<path d="M44.4437 18.9844C43.9374 18.4781 43.6976 17.9186 43.7243 17.2792C43.7243 17.066 43.7243 16.6397 43.7243 16.0269C43.7243 15.4939 43.7243 15.0676 43.7243 14.7745C43.7243 14.1351 43.6709 13.4157 43.5377 12.5897C43.4578 12.0302 43.2179 11.6305 42.8716 11.4173C42.472 11.1775 42.2854 10.7512 42.3121 10.1117C42.3387 9.71203 42.472 9.47229 42.7117 9.36567C43.1647 9.1792 43.4311 8.7262 43.5377 8.08673C43.6709 7.23409 43.7243 6.43475 43.7243 5.6887C43.6976 4.59627 43.7243 3.79693 43.7243 3.29068C43.8041 2.06503 44.4703 1.26568 45.696 0.919304C46.362 0.706146 47.0815 0.652857 47.8009 0.732791C48.094 0.759436 48.2804 0.94595 48.3337 1.23904C48.3604 1.37226 48.3604 1.53213 48.3604 1.71864C48.3604 2.1716 48.3337 2.46469 48.2272 2.59792C48.1206 2.73114 47.8541 2.83772 47.4012 2.91765C46.735 3.05088 46.362 3.39726 46.2821 4.01009C46.2022 4.56963 46.1755 4.9693 46.1755 5.2091C46.1489 6.16831 46.1489 7.07423 46.1755 7.92686C46.1755 8.7262 46.0157 9.36567 45.6693 9.84524C45.4295 10.1917 45.4295 10.5114 45.6693 10.8578C46.0157 11.3374 46.1755 11.9768 46.1755 12.7496C46.1755 12.936 46.1755 13.9485 46.1755 15.7604C46.1755 16.1867 46.2288 16.5598 46.3088 16.8529C46.442 17.3324 46.7351 17.5988 47.188 17.7055C47.2413 17.7055 47.2946 17.7321 47.3746 17.7321C47.4811 17.7321 47.5344 17.7587 47.5877 17.7587C47.9074 17.8387 48.1206 17.9186 48.2005 18.0252C48.2805 18.1318 48.3337 18.3449 48.3604 18.6913C48.3871 19.2509 48.3337 19.5972 48.2005 19.7304C48.0673 19.8636 47.6943 19.9436 47.1348 19.9436C45.9891 19.9703 45.1098 19.6505 44.4437 18.9844Z" fill="#F3F6F9"/>
<path d="M55.2875 10.0581C55.2076 10.0848 55.101 10.1115 54.9678 10.1647C54.8079 10.218 54.7013 10.2447 54.648 10.2713C54.4882 10.3246 54.4082 10.4046 54.355 10.5378C54.3017 10.671 54.3283 10.7776 54.4082 10.9108C54.4349 10.9907 54.4882 11.0707 54.5681 11.1506C54.6747 11.2838 54.728 11.3371 54.7547 11.3904C54.9411 11.6569 54.9145 11.8433 54.7547 12.0032C54.3017 12.3763 53.8487 12.6959 53.3957 12.989C53.2892 13.069 53.1826 13.0956 53.076 13.069C52.9694 13.0424 52.8628 12.989 52.783 12.8825C52.7296 12.8292 52.6763 12.7493 52.6231 12.6427C52.5431 12.5095 52.4898 12.4295 52.4632 12.4028C52.2234 12.0565 51.9303 12.0565 51.6639 12.4028C51.6372 12.4562 51.5839 12.5095 51.5307 12.616C51.4773 12.7226 51.424 12.7759 51.3974 12.8026C51.2642 12.9624 51.1576 13.069 51.051 13.0956C50.9445 13.1223 50.8112 13.0956 50.6514 12.989C50.2783 12.7493 49.852 12.4295 49.3724 12.0565C49.2659 11.9765 49.2125 11.8966 49.2125 11.7634C49.1859 11.6569 49.2125 11.5502 49.2924 11.417C49.3457 11.3371 49.4257 11.2305 49.5323 11.0973C49.6388 10.9641 49.7187 10.8575 49.7454 10.7776C49.7987 10.6976 49.7987 10.6177 49.7721 10.5378C49.7454 10.4578 49.6922 10.4046 49.6122 10.3512C49.5323 10.2979 49.3991 10.2447 49.2659 10.1914C49.0793 10.1115 48.9728 10.0581 48.8928 10.0315C48.5997 9.89831 48.4931 9.68516 48.5731 9.39207C48.7063 8.91242 48.8661 8.48611 49.026 8.08644C49.1592 7.79335 49.3991 7.66012 49.7454 7.74006C49.7454 7.74006 49.7721 7.74006 49.7987 7.74006C49.8254 7.74006 49.8254 7.74006 49.8254 7.74006C50.0918 7.79335 50.2783 7.84664 50.3849 7.84664C50.5181 7.87328 50.6247 7.84664 50.678 7.81999C50.7579 7.74006 50.8112 7.47361 50.8112 6.94072C50.8112 6.78085 50.8379 6.64763 50.8911 6.59434C50.9445 6.5144 51.051 6.48776 51.1842 6.46111C51.7704 6.40782 52.2766 6.40782 52.7563 6.46111C53.0227 6.48776 53.1559 6.64763 53.2093 6.91407C53.2093 6.96736 53.2359 7.07395 53.2359 7.20716C53.2359 7.34039 53.2625 7.42032 53.2625 7.50025C53.3158 7.84664 53.5024 7.97986 53.822 7.89993C53.902 7.87328 54.0086 7.84664 54.1418 7.79335C54.275 7.74006 54.3816 7.71341 54.4882 7.71341C54.7013 7.66012 54.8612 7.71341 55.0211 7.89993C55.1276 8.03315 55.2342 8.2996 55.3674 8.72592C55.5006 9.15224 55.5806 9.44533 55.5806 9.63181C55.5806 9.81837 55.5007 9.97825 55.2875 10.0581Z" fill="#F3F6F9"/>
<path d="M60.4833 5.95504V7.84681C60.4833 8.6195 60.803 9.15241 61.3892 9.47209C61.7622 9.65865 61.9221 9.97842 61.9221 10.4047C61.8954 10.8043 61.709 11.1241 61.3093 11.3106C60.7498 11.6037 60.4833 12.0833 60.4833 12.7761C60.4833 13.2024 60.4833 13.7619 60.4833 14.4547C60.4833 15.3339 60.4833 15.8935 60.4833 16.16C60.4833 16.6662 60.4833 16.986 60.4567 17.1458C60.2968 18.5846 59.5241 19.4639 58.1119 19.7836C57.3659 19.9435 56.8596 20.0234 56.5398 19.9701C56.1668 19.9435 55.9537 19.7303 55.9271 19.3573C55.9004 19.2508 55.9004 19.1175 55.9004 18.9577C55.9004 18.5314 55.9271 18.2383 56.007 18.105C56.1135 17.9185 56.38 17.7853 56.8063 17.732C57.4191 17.6521 57.7922 17.2791 57.8721 16.5863C57.8988 16.3731 57.8988 16.08 57.8988 15.6804C57.8988 14.1882 57.8988 13.229 57.8988 12.8027C57.8988 12.0301 58.0587 11.3905 58.405 10.911C58.6714 10.5113 58.6714 10.1382 58.405 9.71192C58.0852 9.23235 57.9254 8.64615 57.9254 7.92674C57.9254 7.39385 57.9254 6.43464 57.9254 5.04911C57.9254 4.64944 57.8988 4.35635 57.8721 4.14319C57.7656 3.50373 57.4458 3.1307 56.8863 2.99748C56.4066 2.8909 56.1135 2.75767 56.007 2.54452C55.9271 2.41129 55.9004 2.06492 55.9004 1.47873C55.9004 1.3455 55.9004 1.21228 55.9271 1.07906C55.9803 0.759322 56.1402 0.626099 56.4333 0.679388C57.7656 0.865901 58.5115 0.999123 58.6981 1.05241C59.5507 1.39879 60.0836 1.98497 60.3235 2.83761C60.4567 3.34386 60.5099 3.79682 60.5099 4.22313C60.4567 4.35635 60.4567 4.9159 60.4833 5.95504Z" fill="#F3F6F9"/>
<path d="M65.8777 10.5406C65.8777 7.42325 65.8777 5.71796 65.8777 5.45154C65.8511 4.62553 66.0642 3.85287 66.5705 3.10681C67.1034 2.33415 67.7961 1.77455 68.6487 1.45487C68.9685 1.32158 69.2882 1.26831 69.5547 1.26831C70.3274 1.26831 70.8869 1.26831 71.2333 1.26831C71.4731 1.26831 71.7129 1.32158 71.9527 1.40152C72.6188 1.61467 73.3915 2.2542 74.2708 3.29336C74.6704 3.77293 74.8836 4.41238 74.8836 5.23839C74.9103 6.09099 74.9103 6.70385 74.8836 7.10348C74.8836 7.42325 74.8037 7.6364 74.6971 7.74302C74.5905 7.84955 74.3774 7.9029 74.0576 7.9029C73.4981 7.92949 72.9385 7.9029 72.379 7.9029C72.006 7.87622 71.8195 7.68966 71.7662 7.31671C71.7662 7.31671 71.7662 6.91701 71.7395 6.0644C71.7129 5.58475 71.553 5.15845 71.2599 4.83868C70.9935 4.54559 70.6471 4.38579 70.3007 4.38579C69.9277 4.38579 69.608 4.54559 69.3415 4.83868C69.0751 5.13178 68.9152 5.47822 68.8885 5.85125C68.8619 6.0644 68.8619 6.3575 68.8619 6.67718C68.8619 9.68804 68.8619 12.2459 68.8619 14.3508C68.8619 14.7239 68.8885 15.0703 68.9152 15.39C68.9685 15.7364 69.0751 16.0295 69.2349 16.2693C69.4747 16.6423 69.8211 16.8288 70.2208 16.8555C70.6205 16.8821 70.9935 16.7223 71.2866 16.4025C71.5797 16.0561 71.7395 15.6564 71.7662 15.1502C71.7662 15.0436 71.7662 14.8038 71.7662 14.4308C71.7662 14.1377 71.7928 13.898 71.7928 13.7114C71.8195 13.4183 71.8728 13.2318 71.9527 13.1252C72.0593 13.0187 72.2458 12.9653 72.5389 12.9387C73.0984 12.9121 73.6846 12.9121 74.3241 12.9387C74.6971 12.9653 74.8836 13.1519 74.9103 13.5249C74.9902 14.9904 74.9635 16.0029 74.8836 16.5357C74.5372 18.3742 73.4448 19.52 71.6862 19.9729C69.608 20.5058 67.8761 19.8397 66.4905 18.0012C66.1175 17.4949 65.931 16.8022 65.931 15.9229V10.5406H65.8777Z" fill="#F3F6F9"/>
<path d="M85.1683 6.19797C85.1683 10.3545 85.1683 13.2588 85.1683 14.9907C85.1683 15.2572 85.0884 15.95 84.9018 17.0424C84.8485 17.2555 84.7686 17.4687 84.6354 17.7085C83.5962 19.3871 82.1841 20.213 80.3989 20.1598C78.5871 20.1065 77.2548 19.2805 76.4022 17.7085C76.0824 17.1223 75.9226 16.4295 75.9226 15.5769V10.5677C75.9226 7.45028 75.9226 5.82494 75.9226 5.66505C75.896 4.09306 76.642 2.76081 78.1608 1.6417C78.4804 1.42855 78.8002 1.26867 79.1199 1.2154C80.1857 1.05552 81.145 1.05552 81.9443 1.24208C82.5571 1.37529 83.1432 1.69505 83.7028 2.22789C84.2624 2.76081 84.6354 3.32032 84.8219 3.93318C85.0351 4.75919 85.1683 5.50517 85.1683 6.19797ZM81.6245 16.0832C81.7311 15.8433 81.7844 15.497 81.7844 15.0707C81.7844 10.5944 81.7844 7.61016 81.7844 6.11803C81.7844 5.77167 81.7311 5.47858 81.6512 5.18549C81.438 4.54603 80.9851 4.25294 80.2657 4.30621C79.5729 4.35948 79.1733 4.73251 79.0666 5.39864C79.04 5.55852 79.04 5.82494 79.04 6.22465V14.8575C79.04 15.3904 79.0933 15.7634 79.1733 16.0032C79.3864 16.5361 79.786 16.8292 80.3722 16.8292C80.9851 16.8558 81.4114 16.6161 81.6245 16.0832Z" fill="#F3F6F9"/>
<path d="M86.2077 2.65377C86.2077 1.98764 86.2611 1.6146 86.3943 1.4814C86.5275 1.34819 86.9005 1.29492 87.5667 1.29492C88.0996 1.29492 88.4725 1.29492 88.7124 1.3216C89.0854 1.34819 89.2985 1.53475 89.3252 1.9077C89.3518 2.09426 89.3518 2.44062 89.3518 2.94686V8.86197C89.3518 11.4998 89.3518 13.4449 89.3518 14.7772C89.3518 15.31 89.3518 15.6564 89.3785 15.8162C89.4318 16.4024 89.7515 16.7222 90.311 16.7489C90.3644 16.7489 90.9506 16.7489 92.0963 16.7755C92.9755 16.7755 93.4551 16.8021 93.5617 16.8021C93.9348 16.8287 94.1479 17.042 94.1479 17.4149C94.1745 18.0544 94.1745 18.6672 94.1479 19.3068C94.1479 19.6531 93.9348 19.8663 93.535 19.8929C93.4018 19.9195 93.1887 19.9195 92.9223 19.9195C90.0713 19.9195 88.2328 19.9195 87.4335 19.9195C86.8473 19.9195 86.4742 19.8396 86.3676 19.7331C86.2344 19.5998 86.1812 19.2534 86.1812 18.6672V10.6205C86.2077 5.90445 86.2077 3.23995 86.2077 2.65377Z" fill="#F3F6F9"/>
<path d="M95.1335 2.65377C95.1335 1.98764 95.1869 1.6146 95.3201 1.4814C95.4533 1.34819 95.8263 1.29492 96.4925 1.29492C97.0254 1.29492 97.3983 1.29492 97.6381 1.3216C98.0112 1.34819 98.2243 1.53475 98.251 1.9077C98.2776 2.09426 98.2776 2.44062 98.2776 2.94686V8.86197C98.2776 11.4998 98.2776 13.4449 98.2776 14.7772C98.2776 15.31 98.2776 15.6564 98.3043 15.8162C98.3575 16.4024 98.6773 16.7222 99.2368 16.7489C99.2902 16.7489 99.8764 16.7489 101.022 16.7755C101.901 16.7755 102.381 16.8021 102.488 16.8021C102.861 16.8287 103.074 17.042 103.074 17.4149C103.1 18.0544 103.1 18.6672 103.074 19.3068C103.074 19.6531 102.861 19.8663 102.461 19.8929C102.328 19.9195 102.114 19.9195 101.848 19.9195C98.9971 19.9195 97.1586 19.9195 96.3592 19.9195C95.7731 19.9195 95.4 19.8396 95.2934 19.7331C95.1602 19.5998 95.1069 19.2534 95.1069 18.6672V10.6205C95.1335 5.90445 95.1335 3.23995 95.1335 2.65377Z" fill="#F3F6F9"/>
<path d="M104.086 10.6208C104.086 5.85137 104.086 3.21354 104.086 2.68062C104.086 2.01449 104.139 1.61487 104.272 1.50825C104.406 1.37504 104.779 1.32178 105.445 1.32178C107.55 1.32178 109.468 1.32178 111.227 1.32178C111.84 1.32178 112.186 1.37504 112.319 1.50825C112.452 1.64146 112.506 1.9879 112.506 2.54741C112.506 3.00039 112.506 3.37342 112.479 3.69311C112.452 4.01287 112.266 4.19935 111.919 4.22602C111.76 4.2527 111.493 4.2527 111.093 4.2527C109.255 4.2527 108.376 4.2527 108.482 4.2527C108.029 4.27929 107.736 4.35923 107.576 4.51912C107.417 4.679 107.31 4.97209 107.31 5.39839C107.283 6.30434 107.283 7.15694 107.31 8.00955C107.31 8.38258 107.39 8.62241 107.55 8.78229C107.71 8.94217 107.976 9.02203 108.349 9.04871C108.562 9.04871 108.882 9.04871 109.282 9.04871C109.708 9.04871 110.028 9.04871 110.241 9.04871C110.561 9.07538 110.774 9.12865 110.88 9.23527C110.987 9.3418 111.04 9.55495 111.067 9.87472C111.093 10.4342 111.067 10.9938 111.04 11.5533C111.014 11.9264 110.827 12.1128 110.427 12.1395C110.028 12.1661 109.415 12.1662 108.642 12.1662C108.136 12.1662 107.816 12.2195 107.656 12.326C107.443 12.4859 107.337 12.8589 107.283 13.4184C107.257 14.0579 107.257 14.7773 107.283 15.6033C107.31 16.0297 107.39 16.3227 107.55 16.4825C107.71 16.6424 108.003 16.7224 108.456 16.749C108.376 16.749 109.255 16.749 111.067 16.749C111.467 16.749 111.76 16.7756 111.919 16.7756C112.266 16.8023 112.452 16.9889 112.479 17.282C112.559 17.9747 112.559 18.6141 112.479 19.2537C112.452 19.5734 112.266 19.7599 111.919 19.7865C111.706 19.8132 111.467 19.8399 111.2 19.8399C110.347 19.8399 108.402 19.8399 105.418 19.8399C105.232 19.8399 105.098 19.8399 104.992 19.8399C104.672 19.8132 104.459 19.7332 104.352 19.6267C104.219 19.5201 104.166 19.3069 104.139 19.0138C104.139 18.8806 104.139 18.5609 104.139 18.0813V10.6208H104.086Z" fill="#F3F6F9"/>
<path d="M113.465 10.5406C113.465 7.42325 113.465 5.71796 113.465 5.45154C113.438 4.62553 113.652 3.85287 114.158 3.10681C114.691 2.33415 115.384 1.77455 116.236 1.45487C116.556 1.32158 116.876 1.26831 117.142 1.26831C117.915 1.26831 118.474 1.26831 118.821 1.26831C119.06 1.26831 119.3 1.32158 119.54 1.40152C120.206 1.61467 120.979 2.2542 121.858 3.29336C122.258 3.77293 122.471 4.41238 122.471 5.23839C122.498 6.09099 122.498 6.70385 122.471 7.10348C122.471 7.42325 122.391 7.6364 122.284 7.74302C122.178 7.84955 121.965 7.9029 121.645 7.9029C121.086 7.92949 120.526 7.9029 119.966 7.9029C119.593 7.87622 119.407 7.68966 119.354 7.31671C119.354 7.31671 119.354 6.91701 119.327 6.0644C119.3 5.58475 119.14 5.15845 118.847 4.83868C118.581 4.54559 118.235 4.38579 117.888 4.38579C117.515 4.38579 117.195 4.54559 116.929 4.83868C116.662 5.13178 116.503 5.47822 116.476 5.85125C116.449 6.0644 116.449 6.3575 116.449 6.67718C116.449 9.68804 116.449 12.2459 116.449 14.3508C116.449 14.7239 116.476 15.0703 116.503 15.39C116.556 15.7364 116.662 16.0295 116.822 16.2693C117.062 16.6423 117.409 16.8288 117.808 16.8555C118.208 16.8821 118.581 16.7223 118.874 16.4025C119.167 16.0561 119.327 15.6564 119.354 15.1502C119.354 15.0436 119.354 14.8038 119.354 14.4308C119.354 14.1377 119.38 13.898 119.38 13.7114C119.407 13.4183 119.46 13.2318 119.54 13.1252C119.647 13.0187 119.833 12.9653 120.126 12.9387C120.686 12.9121 121.272 12.9121 121.911 12.9387C122.284 12.9653 122.471 13.1519 122.498 13.5249C122.578 14.9904 122.551 16.0029 122.471 16.5357C122.125 18.3742 121.032 19.52 119.274 19.9729C117.195 20.5058 115.463 19.8397 114.078 18.0012C113.705 17.4949 113.518 16.8022 113.518 15.9229V10.5406H113.465Z" fill="#F3F6F9"/>
<path d="M126.361 6.19773C126.361 5.74475 126.361 5.47834 126.361 5.34513C126.335 5.02536 126.255 4.81221 126.121 4.679C125.988 4.54579 125.775 4.46585 125.455 4.43917C125.296 4.43917 125.082 4.4125 124.816 4.4125C124.523 4.4125 124.31 4.4125 124.203 4.4125C123.937 4.38591 123.75 4.33264 123.643 4.2527C123.537 4.14608 123.484 3.9862 123.457 3.74646C123.43 3.16027 123.43 2.57409 123.457 1.96123C123.484 1.74808 123.537 1.58819 123.617 1.48166C123.723 1.40172 123.883 1.34837 124.123 1.32178C124.256 1.32178 124.443 1.32178 124.736 1.32178C128.253 1.32178 130.411 1.32178 131.157 1.32178C131.77 1.32178 132.143 1.37504 132.276 1.50825C132.41 1.64146 132.463 1.9879 132.463 2.62735C132.463 3.16027 132.463 3.5599 132.436 3.77305C132.41 4.01287 132.356 4.17276 132.276 4.2527C132.17 4.35923 132.01 4.4125 131.797 4.4125C131.664 4.43917 131.45 4.43917 131.211 4.43917C130.944 4.43917 130.758 4.43917 130.624 4.43917C130.225 4.46585 129.958 4.54579 129.798 4.70559C129.639 4.86548 129.559 5.13198 129.532 5.5316C129.532 5.66481 129.532 5.9579 129.532 6.46414V12.3793C129.532 14.8039 129.532 16.7756 129.532 18.2945C129.532 18.774 129.532 19.1204 129.505 19.3335C129.479 19.68 129.292 19.8664 128.973 19.8664C128.28 19.8931 127.614 19.8931 126.974 19.8664C126.628 19.8399 126.441 19.6533 126.388 19.2537C126.361 19.0938 126.361 18.8273 126.361 18.401C126.361 17.3618 126.361 15.3103 126.361 12.246V6.19773Z" fill="#F3F6F9"/>
<path d="M136.593 10.6208C136.593 15.3102 136.593 17.9747 136.593 18.5609C136.593 19.227 136.539 19.6 136.406 19.7332C136.273 19.8664 135.873 19.9197 135.234 19.9197C134.727 19.9197 134.354 19.9197 134.061 19.8931C133.715 19.8664 133.502 19.6533 133.448 19.2803C133.422 19.0938 133.422 18.8007 133.422 18.4277C133.422 11.4201 133.422 6.17105 133.422 2.65403C133.422 2.0145 133.475 1.61487 133.608 1.50825C133.742 1.37504 134.115 1.32178 134.807 1.32178C135.34 1.32178 135.713 1.32178 135.953 1.34837C136.326 1.37504 136.513 1.58819 136.566 1.96123C136.593 2.1477 136.593 2.44079 136.593 2.89377V10.6208Z" fill="#F3F6F9"/>
<path d="M142.907 19.9198C142.002 19.9198 141.495 19.9198 141.415 19.9198C141.042 19.9198 140.829 19.7333 140.749 19.3869C140.669 19.1204 140.616 18.8807 140.589 18.6675C140.376 17.4685 140.083 15.8166 139.71 13.7116C139.284 11.3402 138.991 9.68821 138.831 8.75567C138.671 7.95633 138.485 6.91717 138.271 5.66486C137.978 3.98625 137.792 2.97376 137.712 2.57414C137.685 2.44085 137.659 2.36091 137.659 2.25437C137.632 1.88134 137.659 1.64151 137.765 1.48163C137.872 1.34842 138.111 1.26848 138.485 1.26848C139.071 1.24189 139.63 1.24189 140.163 1.26848C140.43 1.29515 140.616 1.34842 140.723 1.42836C140.829 1.53498 140.909 1.69486 140.962 1.9346C141.096 2.60073 141.202 3.3468 141.362 4.1994C141.469 4.78558 141.655 6.0113 141.922 7.82312C142.162 9.34185 142.348 10.5409 142.508 11.4468C142.535 11.6599 142.641 11.953 142.774 12.3527C142.801 12.4592 142.881 12.5126 142.987 12.5392C143.147 12.5659 143.227 12.4859 143.281 12.2994C143.387 11.8198 143.467 11.4468 143.52 11.1537C143.68 10.1945 143.92 8.86228 144.186 7.13032C144.48 5.23856 144.719 3.90631 144.826 3.10697C144.879 2.84056 144.959 2.44085 145.066 1.88134C145.146 1.5083 145.359 1.29515 145.705 1.29515C146.505 1.26848 147.224 1.26848 147.81 1.29515C148.21 1.32183 148.396 1.53498 148.37 1.9346C148.343 2.3609 148.263 2.86723 148.157 3.48001C147.464 7.31688 146.531 12.2461 145.439 18.3211C145.386 18.6142 145.306 18.9606 145.226 19.3336C145.146 19.7066 144.906 19.8932 144.56 19.8932C144.373 19.8932 143.84 19.8932 142.907 19.9198Z" fill="#F3F6F9"/>
<path d="M149.329 10.6208C149.329 5.85137 149.329 3.21354 149.329 2.68062C149.329 2.01449 149.382 1.61487 149.515 1.50825C149.648 1.37504 150.021 1.32178 150.688 1.32178C152.792 1.32178 154.711 1.32178 156.47 1.32178C157.082 1.32178 157.429 1.37504 157.562 1.50825C157.695 1.64146 157.749 1.9879 157.749 2.54741C157.749 3.00039 157.749 3.37342 157.722 3.69311C157.695 4.01287 157.509 4.19935 157.162 4.22602C157.002 4.2527 156.736 4.2527 156.336 4.2527C154.498 4.2527 153.619 4.2527 153.725 4.2527C153.272 4.27929 152.979 4.35923 152.819 4.51912C152.659 4.679 152.552 4.97209 152.552 5.39839C152.526 6.30434 152.526 7.15694 152.552 8.00955C152.552 8.38258 152.632 8.62241 152.792 8.78229C152.952 8.94217 153.219 9.02203 153.592 9.04871C153.805 9.04871 154.124 9.04871 154.524 9.04871C154.951 9.04871 155.27 9.04871 155.483 9.04871C155.803 9.07538 156.016 9.12865 156.123 9.23527C156.23 9.3418 156.283 9.55495 156.31 9.87472C156.336 10.4342 156.31 10.9938 156.283 11.5533C156.256 11.9264 156.07 12.1128 155.67 12.1395C155.27 12.1661 154.658 12.1662 153.885 12.1662C153.379 12.1662 153.059 12.2195 152.899 12.326C152.686 12.4859 152.579 12.8589 152.526 13.4184C152.499 14.0579 152.499 14.7773 152.526 15.6033C152.552 16.0297 152.632 16.3227 152.792 16.4825C152.952 16.6424 153.245 16.7224 153.699 16.749C153.619 16.749 154.498 16.749 156.31 16.749C156.709 16.749 157.002 16.7756 157.162 16.7756C157.509 16.8023 157.695 16.9889 157.722 17.282C157.802 17.9747 157.802 18.6141 157.722 19.2537C157.695 19.5734 157.509 19.7599 157.162 19.7865C156.949 19.8132 156.709 19.8399 156.443 19.8399C155.59 19.8399 153.645 19.8399 150.661 19.8399C150.474 19.8399 150.341 19.8399 150.235 19.8399C149.915 19.8132 149.702 19.7332 149.595 19.6267C149.462 19.5201 149.409 19.3069 149.382 19.0138C149.382 18.8806 149.382 18.5609 149.382 18.0813V10.6208H149.329Z" fill="#F3F6F9"/>
</svg>
